# xmcd
#
# Track frame offsets:
#	150
#	13397
#	23233
#	33656
#	46493
#	58690
#	72642
#	84952
#	96821
#	109217
#	122419
#	134496
#	146745
#	157255
#	168280
#	181648
#	194142
#	206724
#	221191
#	231705
#
# Disc length: 3255 seconds
#
# Revision: 1
# Processed by: cddbd v1.5.1PL2 Copyright (c) Steve Scherf et al.
# Submitted via: audiograbber 1.83.01
#
DISCID=3b0cb514
DTITLE=Various Artist - World Stars Country Hits
DYEAR=2005
DGENRE=Country
TTITLE0=Hank Williams - Jambalaya (On The Bayou)
TTITLE1=Faron Young - I've Got Five Dollars And It's Saturday Night
TTITLE2=Hank Lockin - Let Me Be The One
TTITLE3=Hank Snow - I'm Movin' On
TTITLE4=Jim Reeves - Mexican Joe
TTITLE5=Red Foley, Ernest Tubb With The Sunshine Trio - Goodnight Irene
TTITLE6=Slim Whitman - My Heart Is Broken In Three
TTITLE7=Tennessee Ernie Ford - The Shotgun Boogie
TTITLE8=Hank Williams - Your Cheatin' Heart
TTITLE9=Eddy Arnold - Take Me In Your Arms And Hold Me
TTITLE10=Frankie Laine - High Noon (Do Not Forsake Me)
TTITLE11=Faron Young - Goin' Steady
TTITLE12=Lefty Frizzel - Give Me More More More (Of Your Kisses)
TTITLE13=Jim And Jesse - My Little Honey Suckle Rose
TTITLE14=Hank Williams - Hey Good Looking
TTITLE15=Hank Thompson - The Wild Side Of Life
TTITLE16=Webb Pierce - Back Street Affair
TTITLE17=Slim Whitman - Indian Love Call
TTITLE18=Ernest Tubb - Two Glasses Joe
TTITLE19=Jim Reeves - Bimbo
EXTD=
EXTT0=
EXTT1=
EXTT2=
EXTT3=
EXTT4=
EXTT5=
EXTT6=
EXTT7=
EXTT8=
EXTT9=
EXTT10=
EXTT11=
EXTT12=
EXTT13=
EXTT14=
EXTT15=
EXTT16=
EXTT17=
EXTT18=
EXTT19=
PLAYORDER=
